<svg version="1.1" width="95" height="23" viewBox="0 0 95 23" xmlns="http://www.w3.org/2000/svg">
 <g transform="matrix(.3162 0 0 .3194 55.82 -2.376)">
  <rect x="48.37" y="15.14" width="34.66" height="56.61" fill="#ff5f00"/>
  <path d="m51.94 43.45a35.94 35.94 0 0113.75-28.3 36 36 0 100 56.61 35.94 35.94 0 01-13.75-28.31z" fill="#eb001b"/>
  <path d="m123.9 43.45a36 36 0 01-58.25 28.3 36 36 0 000-56.61 36 36 0 0158.25 28.3z" fill="#f79e1b"/>
 </g>
 <path d="m25.74 3.413-3.475 16.31h-4.2l3.475-16.31zm17.67 10.53 2.212-6.125 1.273 6.125zm4.687 5.779h3.885l-3.39-16.31h-3.587c-.8058 0-1.486.471-1.789 1.197l-6.303 15.12h4.411l.8758-2.436h5.389zm-10.96-5.327c.01809-4.305-5.927-4.543-5.886-6.466.01226-.5856.5677-1.207 1.781-1.367.6028-.07906 2.261-.1397 4.143.7301l.7366-3.459c-1.011-.3689-2.311-.7234-3.93-.7234-4.152 0-7.074 2.217-7.098 5.393-.02599 2.347 2.086 3.658 3.679 4.439 1.635.7998 2.186 1.312 2.18 2.027-.01088 1.095-1.306 1.578-2.514 1.596-2.112.03359-3.338-.5728-4.315-1.03l-.761 3.574c.9813.4531 2.793.8465 4.672.8668 4.413 0 7.299-2.191 7.314-5.581m-17.4-10.99-6.805 16.31h-4.44l-3.349-13.02c-.2034-.8019-.3803-1.095-.9987-1.433-1.009-.5503-2.676-1.067-4.144-1.387l.1006-.4739h7.147c.9107 0 1.73.609 1.937 1.664l1.769 9.44 4.371-11.1z" style="fill:#1434cb;stroke-width:1.533"/>
</svg>
