<svg version="1.1" width="50" height="25" viewBox="0 0 50 25" xmlns="http://www.w3.org/2000/svg">
 <g transform="matrix(.25 0 0 .25 -5e-5 0)" fill="#002124" stroke-width="1.4795">
  <path class="c" d="m173.4 37.737c-1.3006 0-2.35-1.0515-2.35-2.3549v-10.412h-0.85723c-5.3798 0-7.3751 0.88862-7.3751 5.8057v30.392c0 1.955-0.38427 3.5249-1.1528 4.7393-1.4632 2.266-4.3748 3.2879-9.0157 3.3027-4.6408 0-7.5525-1.0367-9.0157-3.3027-0.78333-1.2145-1.1528-2.7696-1.1528-4.7393v-30.391c0-4.9171-1.9953-5.8057-7.3751-5.8057h-1.6997c-5.3798 0-7.3751 0.88862-7.3751 5.8057v30.391c0 4.8874 1.0937 9.0344 3.222 12.367 4.1088 6.4722 12.06 9.9082 23.367 9.9082h0.0886c11.307 0 19.258-3.4508 23.367-9.9082 2.1283-3.3323 3.222-7.4793 3.222-12.367v-23.415h-5.8528z"/>
  <rect class="c" x="187.66" y="8.4716" width="12.341" height="12.47" rx="1.744" ry="1.7476"/>
  <rect class="c" x="179.28" width="8.3801" height="8.4716" rx="1.1824" ry="1.1848"/>
  <path class="c" d="m22.82 24.956h-12.873c-6.8726 0-9.9468 3.0658-9.9468 9.9674v44.254c0 2.6659 0.85723 3.5101 3.5028 3.5101h0.87201c2.6604 0 3.5028-0.859 3.5028-3.5101v-17.225h14.928c13.243 0 19.421-5.8797 19.421-18.498 0-12.618-6.1632-18.498-19.421-18.498zm11.528 18.498c0 7.2127-1.8327 11.123-11.528 11.123h-14.928v-18.617c0-2.577 0.96069-3.5397 3.5324-3.5397h11.395c7.3012 0 11.528 1.8069 11.528 11.034z"/>
  <path class="c" d="m58.809 37.648c-5.099 0-8.2915 0.63685-9.5034 0.88863-2.1431 0.47393-3.0446 1.0515-3.0446 3.5101v0.69609c0 0.96268 0.1478 1.6291 0.44339 2.0883 0.35472 0.54799 0.91635 0.81457 1.6997 0.81457 0.3695 0 0.81289-0.05924 1.3302-0.19254 1.2267-0.31102 5.1434-0.94787 9.4295-0.94787 7.7003 0 10.834 2.1327 10.834 7.3756v4.6801h-9.7103c-12.474 0-18.283 4.221-18.283 13.27 0 9.0492 6.0006 13.626 16.893 13.626 12.947 0 18.726-4.4135 18.726-14.322v-17.254c0-9.5823-6.1484-14.233-18.815-14.233zm11.188 25.148v6.0723c0 4.9467-1.8327 7.8051-11.188 7.8051-6.1779 0-9.1782-2.2364-9.1782-6.8572 0-5.0504 3.0151-7.0201 10.745-7.0201z"/>
  <path class="c" d="m120.29 39.707c-0.54685-0.69609-1.5962-0.78495-2.6308-0.78495h-0.78333c-2.6012 0-3.621 0.79976-4.1827 3.3027l-7.2125 30.05c-0.90157 3.6878-2.1726 4.3691-4.3305 4.3691-2.6456 0-3.7097-0.63685-4.7739-4.3839l-8.1732-30.05c-0.67987-2.5178-1.6701-3.2879-4.2714-3.2879h-0.69465c-1.0494 0-2.0987 0.10367-2.6308 0.79976s-0.35472 1.7476-0.0739 2.7844l8.2619 30.317c1.5519 5.8057 3.3846 10.604 10.272 10.604 1.2858 0 2.4682-0.17773 3.4585-0.51836-2.084 6.5758-4.2122 9.4787-10.464 10.116-1.2711 0.10367-2.0987 0.2814-2.5569 0.90344-0.47295 0.63685-0.36949 1.5551-0.19214 2.3845l0.17736 0.77014c0.3695 1.7921 1.005 2.9177 3.0299 2.9177 0.20692 0 0.44339 0 0.67987-0.02962 9.3408-0.60723 14.351-5.6576 17.292-17.402l10.006-40.092c0.23647-1.0219 0.38427-2.0735-0.16258-2.7695z"/>
  <path class="c" d="m185.31 20.942h-11.912c-1.3006 0-2.35 1.0515-2.35 2.3549v1.6588h0.82767c5.3798 0 7.3751 0.88863 7.3751 5.8057v6.9757h6.0597c1.3006 0 2.35-1.0515 2.35-2.3549v-12.085c0-1.3033-1.0494-2.3549-2.35-2.3549z"/>
 </g>
</svg>
