<svg version="1.1" width="50" height="25" viewBox="0 0 50 25" xmlns="http://www.w3.org/2000/svg">
 <g transform="matrix(.2222 0 0 -.2222 0 32.07)" fill="#a6c307">
  <path d="m195.1 101.8c-1.462 0-2.646 1.188-2.645 2.652l.004 11.72h-.9756c-6.051 0-8.302-1-8.302-6.524v-12.92c-.00078-.02737-.004-.0548-.004-.08217v-2.833c-.002-.09807-.008-.1894-.008-.2909v-18.06c0-2.206-.424-3.962-1.299-5.326-1.65-2.547-4.917-3.706-10.14-3.712-5.224.0067-8.49 1.164-10.14 3.709-.8776 1.365-1.302 3.122-1.302 5.329v18.06c0 .1014-.005.1928-.007.2909v2.833c0 .02737-.003.0548-.004.08217v12.92c0 5.524-2.251 6.524-8.302 6.524h-1.905c-6.052 0-8.302-1-8.302-6.524v-34.19c0-5.5 1.238-10.16 3.629-13.91 4.619-7.274 13.57-11.15 26.29-11.15.0156 0 .0311.000624.0467.000624.0163 0 .0311-.000624.0475-.000624 12.72 0 21.67 3.874 26.29 11.15 2.391 3.754 3.629 8.411 3.629 13.91v26.34l-6.59.002"/>
  <path d="m223 120.7-9.953.004c-1.085 0-1.965.8825-1.964 1.97l.003 10.1c.00078 1.088.8814 1.97 1.967 1.97l9.953-.004c1.086 0 1.966-.8825 1.966-1.971l-.004-10.1c0-1.088-.8807-1.969-1.967-1.969"/>
  <path d="m209.8 134.8-6.76.002c-.7375.00077-1.335.5995-1.335 1.338l.002 6.858c.00078.7398.599 1.338 1.336 1.338l6.76-.002c.7375 0 1.335-.5995 1.335-1.339l-.002-6.858c-.00078-.739-.5983-1.337-1.336-1.337"/>
  <path d="m38.63 95.42c0-8.113-2.067-12.51-12.97-12.51h-16.79v20.94c0 2.904 1.077 3.983 3.975 3.983h12.81c8.216 0 12.97-2.031 12.97-12.41zm-12.97 20.81h-14.48c-7.735 0-11.18-3.457-11.18-11.21v-49.79c0-2.994.9591-3.956 3.947-3.956h.9782c2.988 0 3.948.9614 3.948 3.956v19.37h16.79c14.9 0 21.85 6.614 21.85 20.81 0 14.2-6.942 20.81-21.85 20.81"/>
  <path d="m78.73 73.66v-6.825c0-5.564-2.058-8.786-12.58-8.786-6.952 0-10.33 2.521-10.33 7.707 0 5.687 3.39 7.903 12.09 7.903zm-12.58 28.3c-5.737 0-9.332-.7211-10.7-.9943-2.415-.5262-3.424-1.19-3.424-3.942v-.7841c0-1.078.1593-1.825.5011-2.35.3978-.6121 1.038-.9227 1.905-.9227.4227 0 .9123.07157 1.497.2177 1.379.3457 5.786 1.06 10.61 1.06 8.659 0 12.19-2.404 12.19-8.295v-5.258h-10.92c-14.04 0-20.57-4.744-20.57-14.93 0-9.882 6.751-15.32 19.01-15.32 14.57 0 21.06 4.967 21.06 16.11v19.41c0 10.77-6.922 16.01-21.16 16.01"/>
  <path d="m135.3 99.64c-.6185.7781-1.788.8853-2.96.8853h-.8791c-2.921 0-4.067-.9029-4.714-3.711l-8.117-33.81c-1.013-4.155-2.437-4.914-4.872-4.914-2.983 0-4.177.7135-5.366 4.931l-9.194 33.81c-.7609 2.832-1.883 3.695-4.806 3.695h-.7826c-1.179 0-2.354-.1088-2.957-.8968-.6037-.7893-.3999-1.967-.08869-3.125l9.291-34.1c1.743-6.527 3.814-11.93 11.56-11.93 1.445 0 2.781.201 3.893.5768-2.348-7.399-4.736-10.66-11.78-11.39-1.429-.119-2.358-.3243-2.875-1.02-.5376-.7211-.4154-1.754-.2233-2.676l.1937-.8746c.4201-2.022 1.137-3.276 3.402-3.276.2381 0 .494.01249.7686.03593 10.52.6897 16.15 6.364 19.45 19.58l11.25 45.1c.2668 1.157.4279 2.335-.189 3.112"/>
  <path d="m208.5 120.7-13.4.005c-1.462 0-2.647-1.187-2.647-2.652l-.00078-1.873h.9297c6.051 0 8.302-1 8.302-6.524v-7.852l6.811-.002c1.462-.00085 2.647 1.186 2.647 2.651l.005 13.59c0 1.465-1.184 2.653-2.645 2.654"/>
 </g>
</svg>
