<svg version="1.1" height="25" width="83.3" viewBox="0 0 83.3 25" xmlns="http://www.w3.org/2000/svg">
 <defs>
  <linearGradient id="a" x1="145.29" x2="203" y1="1023.4" y2="965.71" gradientTransform="matrix(.37957 0 0 -.38262 -5.9368 390.12)" gradientUnits="userSpaceOnUse">
   <stop stop-color="#81bb00" stop-opacity="0" offset="0"/>
   <stop stop-color="#81bb00" offset="1"/>
  </linearGradient>
 </defs>
 <g transform="matrix(.3774 0 0 .3774 -.82161 -.67088)">
  <path d="m97.934 39.52v-10.828h5.3711v-5.5078h-5.3711v-6.7305h-6.8047v6.7305h-3.7188v5.5078h3.7188v11.719c0 5.5039 3.1641 7.9414 8.0898 7.9414 1.8789 0 3.4961-0.32812 4.375-0.76953v-6.0664c-0.76562 0.55859-1.9805 0.89062-2.9375 0.89062-1.6172-0.11328-2.7227-1-2.7227-2.8867zm14.676-16.336h-6.8047l7.4297 24.617h6.2578l4.0469-15.117 4.043 15.117h6.2539l7.4297-24.617h-6.5859l-4.375 15.668-4.1172-15.668h-5.1523l-4.0469 15.668zm32.301 0h6.8047v24.727h-6.8047zm25.527 10.051-5.0352-1.2188c-1.5508-0.4375-2.2109-0.99609-2.2109-1.9961 0-1.5547 1.6562-2.3242 3.2734-2.3242 2.3203 0 3.3828 1.1055 3.8281 2.4375h6.4726c-0.8789-4.6211-4.2695-7.6133-10.41-7.6133-5.4805 0-9.75 3.2148-9.75 8.0586 0 4.2148 2.6172 6.0586 6.3672 6.9453l4.9258 1.1094c1.7695 0.44531 2.5039 0.99609 2.5039 2.1055 0 1.668-1.4336 2.4453-3.4961 2.4453-2.0938 0-3.6016-1-4.1523-2.7734h-6.7695c0.77344 5.0625 4.9258 7.9414 10.961 7.9414 5.7031 0 10.078-2.9883 10.078-8.0547 0-3.6211-2.3164-6.0625-6.5859-7.0625zm19.391 6.2852v-10.828h5.3711v-5.5078h-5.3711v-6.7305h-6.8086v6.7305h-3.7188v5.5078h3.7188v11.719c0 5.5039 3.1641 7.9414 8.0977 7.9414 1.8711 0 3.4922-0.32812 4.375-0.76953v-6.0664c-0.77344 0.55859-1.9883 0.89062-2.9414 0.89062-1.7305-0.11328-2.7227-1-2.7227-2.8867zm20.266-16.891c-7.1367 0-12.801 5.7266-12.801 12.898s5.707 12.902 12.801 12.902c7.1016 0 12.801-5.7305 12.801-12.902s-5.6992-12.898-12.801-12.898zm0 19.109c-3.3828 0-6.25-2.8867-6.25-6.2852 0-3.4023 2.832-6.2852 6.25-6.2852 3.3867 0 6.2578 2.8828 6.2578 6.2852 0 3.3984-2.8711 6.2852-6.2578 6.2852zm-61.762-28.719c1.875 0 3.3828 1.5117 3.3828 3.4336s-1.5078 3.4414-3.3828 3.4414c-1.8789 0-3.3867-1.5195-3.3867-3.4414s1.5078-3.4336 3.3867-3.4336z" fill="#4c008a"/>
  <path d="m24.102 23.848v44.172h21.891v-66.242h-43.816v22.07z" fill="#4c008a"/>
  <path d="m45.992 1.7773c0 12.273 9.8594 22.07 21.922 22.07v-22.07z" fill="#009c4c"/>
  <path d="m45.992 1.7773c0 12.273 9.8594 22.07 21.922 22.07v-22.07z" fill="url(#a)"/>
 </g>
</svg>
