<?xml version="1.0" encoding="UTF-8"?>
<svg xmlns="http://www.w3.org/2000/svg" xmlns:xlink="http://www.w3.org/1999/xlink" height="25px" viewBox="0 0 225 70" version="1.1">
<defs>
<linearGradient id="linear0" gradientUnits="userSpaceOnUse" x1="145.2851" y1="1023.4291" x2="203.0005" y2="965.7137" gradientTransform="matrix(0.379566,0,0,-0.382625,-5.936843,390.117287)">
<stop offset="0" style="stop-color:rgb(50.980392%,73.72549%,0%);stop-opacity:0;"/>
<stop offset="1" style="stop-color:rgb(50.980392%,73.72549%,0%);stop-opacity:1;"/>
</linearGradient>
</defs>
<g id="surface1">
<path style=" stroke:none;fill-rule:nonzero;fill:rgb(30.980392%,0%,54.901961%);fill-opacity:1;" d="M 97.933594 39.519531 L 97.933594 28.691406 L 103.304688 28.691406 L 103.304688 23.183594 L 97.933594 23.183594 L 97.933594 16.453125 L 91.128906 16.453125 L 91.128906 23.183594 L 87.410156 23.183594 L 87.410156 28.691406 L 91.128906 28.691406 L 91.128906 40.410156 C 91.128906 45.914062 94.292969 48.351562 99.21875 48.351562 C 101.097656 48.351562 102.714844 48.023438 103.59375 47.582031 L 103.59375 41.515625 C 102.828125 42.074219 101.613281 42.40625 100.65625 42.40625 C 99.039062 42.292969 97.933594 41.40625 97.933594 39.519531 Z M 112.609375 23.183594 L 105.804688 23.183594 L 113.234375 47.800781 L 119.492188 47.800781 L 123.539062 32.683594 L 127.582031 47.800781 L 133.835938 47.800781 L 141.265625 23.183594 L 134.679688 23.183594 L 130.304688 38.851562 L 126.1875 23.183594 L 121.035156 23.183594 L 116.988281 38.851562 Z M 144.910156 23.183594 L 151.714844 23.183594 L 151.714844 47.910156 L 144.910156 47.910156 Z M 170.4375 33.234375 L 165.402344 32.015625 C 163.851562 31.578125 163.191406 31.019531 163.191406 30.019531 C 163.191406 28.464844 164.847656 27.695312 166.464844 27.695312 C 168.785156 27.695312 169.847656 28.800781 170.292969 30.132812 L 176.765625 30.132812 C 175.886719 25.511719 172.496094 22.519531 166.355469 22.519531 C 160.875 22.519531 156.605469 25.734375 156.605469 30.578125 C 156.605469 34.792969 159.222656 36.636719 162.972656 37.523438 L 167.898438 38.632812 C 169.667969 39.078125 170.402344 39.628906 170.402344 40.738281 C 170.402344 42.40625 168.96875 43.183594 166.90625 43.183594 C 164.8125 43.183594 163.304688 42.183594 162.753906 40.410156 L 155.984375 40.410156 C 156.757812 45.472656 160.910156 48.351562 166.945312 48.351562 C 172.648438 48.351562 177.023438 45.363281 177.023438 40.296875 C 177.023438 36.675781 174.707031 34.234375 170.4375 33.234375 Z M 189.828125 39.519531 L 189.828125 28.691406 L 195.199219 28.691406 L 195.199219 23.183594 L 189.828125 23.183594 L 189.828125 16.453125 L 183.019531 16.453125 L 183.019531 23.183594 L 179.300781 23.183594 L 179.300781 28.691406 L 183.019531 28.691406 L 183.019531 40.410156 C 183.019531 45.914062 186.183594 48.351562 191.117188 48.351562 C 192.988281 48.351562 194.609375 48.023438 195.492188 47.582031 L 195.492188 41.515625 C 194.71875 42.074219 193.503906 42.40625 192.550781 42.40625 C 190.820312 42.292969 189.828125 41.40625 189.828125 39.519531 Z M 210.09375 22.628906 C 202.957031 22.628906 197.292969 28.355469 197.292969 35.527344 C 197.292969 42.699219 203 48.429688 210.09375 48.429688 C 217.195312 48.429688 222.894531 42.699219 222.894531 35.527344 C 222.894531 28.355469 217.195312 22.628906 210.09375 22.628906 Z M 210.09375 41.738281 C 206.710938 41.738281 203.84375 38.851562 203.84375 35.453125 C 203.84375 32.050781 206.675781 29.167969 210.09375 29.167969 C 213.480469 29.167969 216.351562 32.050781 216.351562 35.453125 C 216.351562 38.851562 213.480469 41.738281 210.09375 41.738281 Z M 148.332031 13.019531 C 150.207031 13.019531 151.714844 14.53125 151.714844 16.453125 C 151.714844 18.375 150.207031 19.894531 148.332031 19.894531 C 146.453125 19.894531 144.945312 18.375 144.945312 16.453125 C 144.945312 14.53125 146.453125 13.019531 148.332031 13.019531 Z M 148.332031 13.019531 "/>
<path style=" stroke:none;fill-rule:nonzero;fill:rgb(30.980392%,0%,54.901961%);fill-opacity:1;" d="M 24.101562 23.847656 L 24.101562 68.019531 L 45.992188 68.019531 L 45.992188 1.777344 L 2.175781 1.777344 L 2.175781 23.847656 Z M 24.101562 23.847656 "/>
<path style=" stroke:none;fill-rule:nonzero;fill:rgb(0%,61.568627%,30.588235%);fill-opacity:1;" d="M 45.992188 1.777344 C 45.992188 14.050781 55.851562 23.847656 67.914062 23.847656 L 67.914062 1.777344 Z M 45.992188 1.777344 "/>
<path style=" stroke:none;fill-rule:nonzero;fill:url(#linear0);" d="M 45.992188 1.777344 C 45.992188 14.050781 55.851562 23.847656 67.914062 23.847656 L 67.914062 1.777344 Z M 45.992188 1.777344 "/>
</g>
</svg>
