<?xml version="1.0" encoding="UTF-8"?>
<svg xmlns="http://www.w3.org/2000/svg" xmlns:xlink="http://www.w3.org/1999/xlink" width="50px" height="20px" viewBox="0 0 50 20" version="1.1">
<g id="surface1">
<path style=" stroke:none;fill-rule:nonzero;fill:rgb(100%,70.196078%,78.039216%);fill-opacity:1;" d="M 5.871094 0 L 44.128906 0 C 47.371094 0 50 2.628906 50 5.871094 L 50 14.355469 C 50 17.597656 47.371094 20.226562 44.128906 20.226562 L 5.871094 20.226562 C 2.628906 20.226562 0 17.597656 0 14.355469 L 0 5.871094 C 0 2.628906 2.628906 0 5.871094 0 Z M 5.871094 0 "/>
<path style=" stroke:none;fill-rule:nonzero;fill:rgb(0%,0%,0%);fill-opacity:1;" d="M 40.039062 8.863281 C 38.75 7.984375 37.003906 8.203125 35.972656 9.371094 C 34.9375 10.542969 34.9375 12.300781 35.972656 13.46875 C 37.003906 14.640625 38.75 14.859375 40.039062 13.980469 L 40.039062 14.355469 L 41.796875 14.355469 L 41.796875 8.488281 L 40.039062 8.488281 Z M 38.441406 12.929688 C 37.617188 12.886719 36.980469 12.191406 37.007812 11.367188 C 37.039062 10.542969 37.722656 9.894531 38.546875 9.910156 C 39.371094 9.925781 40.03125 10.597656 40.03125 11.421875 C 40.007812 12.277344 39.296875 12.953125 38.441406 12.929688 Z M 38.441406 12.929688 "/>
<path style=" stroke:none;fill-rule:nonzero;fill:rgb(0%,0%,0%);fill-opacity:1;" d="M 14.101562 5.871094 L 15.941406 5.871094 L 15.941406 14.355469 L 14.101562 14.355469 Z M 14.101562 5.871094 "/>
<path style=" stroke:none;fill-rule:nonzero;fill:rgb(0%,0%,0%);fill-opacity:1;" d="M 32.078125 8.328125 C 31.375 8.285156 30.699219 8.59375 30.265625 9.148438 L 30.265625 8.488281 L 28.515625 8.488281 L 28.515625 14.355469 L 30.289062 14.355469 L 30.289062 11.269531 C 30.261719 10.914062 30.390625 10.558594 30.644531 10.304688 C 30.898438 10.050781 31.25 9.917969 31.605469 9.941406 C 32.378906 9.941406 32.824219 10.402344 32.824219 11.257812 L 32.824219 14.355469 L 34.578125 14.355469 L 34.578125 10.625 C 34.578125 9.257812 33.492188 8.328125 32.078125 8.328125 Z M 32.078125 8.328125 "/>
<path style=" stroke:none;fill-rule:nonzero;fill:rgb(0%,0%,0%);fill-opacity:1;" d="M 21.5 8.863281 C 20.210938 7.984375 18.46875 8.203125 17.433594 9.371094 C 16.402344 10.542969 16.402344 12.300781 17.433594 13.46875 C 18.46875 14.640625 20.210938 14.859375 21.5 13.980469 L 21.5 14.355469 L 23.257812 14.355469 L 23.257812 8.488281 L 21.5 8.488281 Z M 19.902344 12.929688 C 19.078125 12.886719 18.441406 12.191406 18.46875 11.367188 C 18.5 10.542969 19.183594 9.894531 20.007812 9.910156 C 20.832031 9.921875 21.492188 10.597656 21.492188 11.421875 C 21.46875 12.277344 20.757812 12.953125 19.902344 12.929688 Z M 19.902344 12.929688 "/>
<path style=" stroke:none;fill-rule:nonzero;fill:rgb(0%,0%,0%);fill-opacity:1;" d="M 25.976562 9.25 L 25.976562 8.488281 L 24.175781 8.488281 L 24.175781 14.355469 L 25.980469 14.355469 L 25.980469 11.617188 C 25.980469 10.691406 26.980469 10.195312 27.675781 10.195312 C 27.683594 10.195312 27.691406 10.195312 27.699219 10.195312 L 27.699219 8.488281 C 27.039062 8.46875 26.40625 8.75 25.976562 9.25 Z M 25.976562 9.25 "/>
<path style=" stroke:none;fill-rule:nonzero;fill:rgb(0%,0%,0%);fill-opacity:1;" d="M 43.660156 12.273438 C 43.050781 12.273438 42.558594 12.769531 42.558594 13.375 C 42.558594 13.984375 43.050781 14.480469 43.660156 14.480469 C 44.269531 14.480469 44.765625 13.984375 44.765625 13.375 C 44.765625 12.765625 44.269531 12.273438 43.660156 12.273438 Z M 43.660156 12.273438 "/>
<path style=" stroke:none;fill-rule:nonzero;fill:rgb(0%,0%,0%);fill-opacity:1;" d="M 12.832031 5.871094 L 10.929688 5.871094 C 10.933594 7.417969 10.203125 8.878906 8.957031 9.804688 L 8.203125 10.367188 L 11.128906 14.359375 L 13.535156 14.359375 L 10.839844 10.6875 C 12.125 9.414062 12.839844 7.675781 12.832031 5.871094 Z M 12.832031 5.871094 "/>
<path style=" stroke:none;fill-rule:nonzero;fill:rgb(0%,0%,0%);fill-opacity:1;" d="M 6.058594 5.871094 L 7.96875 5.871094 L 7.96875 14.359375 L 6.058594 14.359375 Z M 6.058594 5.871094 "/>
</g>
</svg>
