<?xml version="1.0" encoding="UTF-8"?>
<svg xmlns="http://www.w3.org/2000/svg" width="83" height="25" viewBox="0 0 773.5 273.7" preserveAspectRatio="xMidYMid slice">
    <g>
        <g>
            <g>
                <path fill="#00bbb4" d="M144.2,28.1c0,40.3,32.4,72.5,72.2,72.5V28.1h-72.2Z" />
                <path fill="#4d008c" d="M72.2,100.6v145.1h72V28.1H0v72.5h72.2Z" />
            </g>
        </g>
    </g>
    <g>
        <path fill="#4d008c" d="M306,123.4V50.1h11.3l34.8,44.4v-44.4h16.2v73.3h-11.9l-34.3-44v44h-16.2.2Z" />
        <path fill="#4d008c" d="M416.3,118.8c-3.8,3.8-8.5,5.3-13.9,5.3-14.5,0-24.2-12.1-24.2-26.1s9.5-26.1,24.2-26.1,10.1,1.7,13.9,5.3h0l3.6-4.4h11.9v50.3h-15.6v-4.4h0v.2ZM415.4,91.8c-2.3-3.8-5.6-5.7-10-5.7s-3.9.5-5.9,1.4c-3.6,2.3-5.6,6.3-5.6,10.6,0,6.5,4.4,11.9,11.3,11.9s11.3-5.1,11.3-11.9-.5-4.4-1.4-6.2h.2ZM399.5,67.2l-5.1-7.6,16.6-15.6,8.8,12.2-19.9,10.9h-.3Z" />
        <path fill="#4d008c" d="M475.1,123.4l-16.3-24.3v24.3h-15.9V48.1h15.9v47.4l16.2-22.5h17.7l-18.4,23.7,19.5,26.7h-18.6v-.2Z" />
        <path fill="#4d008c" d="M495.3,105.2v-32.3h15.9v28.7c0,5,3.5,8.9,8.6,8.9s3.3-.3,4.5-1.2c2.9-1.5,4.4-4.5,4.4-7.7v-28.7h15.9v50.5h-12.4l-3.5-3.9c-3.5,3.5-9.4,5-14.2,5-10.6,0-19.2-8.5-19.2-19.2Z" />
        <path fill="#4d008c" d="M607.3,98c0,14.2-9.5,26.4-24.6,26.4s-6.5-.8-9.5-2c-1.4-.8-2.7-1.7-3.9-2.6v.8l-3.5,24.2h-12.2v-71.8h13l2.9,3.5c1.2-.9,2.4-1.7,3.8-2.4,2.9-1.4,6-2.1,9.5-2.1,14.7,0,24.6,11.9,24.6,26.1h0v-.2ZM579.8,110.1c4.1,0,7.9-2.3,9.8-5.9,1.1-1.7,1.5-3.8,1.5-6.2s-.5-4.4-1.5-6.2c-.9-2-2.3-3.3-3.9-4.4-1.7-.9-3.5-1.4-5.7-1.4s-4.1.5-5.9,1.4c-3.8,2.4-5.6,6.2-5.6,10.6,0,6.6,4.4,12.1,11.3,12.1h-.2.2Z" />
        <path fill="#4d008c" d="M355,190.3v32.2h-15.9v-28.7c0-5-3.5-8.8-8.6-8.8s-8.8,3.5-8.8,8.8v28.7h-15.9v-50.5h12.4l3.5,3.9h0c3.5-3.5,9.4-5,14.2-5,10.6,0,19.2,8.5,19.2,19.2h0l-.2.2Z" />
        <path fill="#4d008c" d="M400.3,218c-3.8,3.8-8.5,5.3-13.9,5.3-14.5,0-24.2-12.1-24.2-26.1s9.5-26.1,24.2-26.1,10.1,1.7,13.9,5.3h0l3.6-4.4h11.9v50.3h-15.6v-4.4h0v.2ZM399.5,190.9c-2.3-3.8-5.6-5.7-10-5.7s-3.9.5-5.9,1.4c-3.6,2.3-5.6,6.3-5.6,10.6,0,6.5,4.4,11.9,11.3,11.9s11.3-5.1,11.3-11.9-.5-4.4-1.4-6.2h.2Z" />
        <path fill="#00bbb4" d="M482.2,183.4h-13.1v19.9c0,5,2,8.5,7.3,8.5s2.3,0,3.2-.3c.9,0,1.7-.3,2.6-.8v11.9c-1.4.5-2.7.9-3.9.9-1.4.3-2.7.3-4.1.3-13.3-.2-19.8-6.5-19.8-19.9v-20.7c.2,0-9.5,0-9.5,0v-11.2h9.8v-12.4l15.1-3.8v16.2h13v11.2h-.3l-.2.2Z" />
        <path fill="#00bbb4" d="M524,144.7l5.1,7-15.1,15h-9.1l-15.1-15,5.1-7,14.5,8.9,14.7-8.9h-.2ZM491.4,222.5v-50.3h15.9v3.9h0c3.2-3.3,7.4-5,13-5s8.5,1.4,11.2,4.5l-9.5,11.9c-1.4-1.5-3.3-2.4-6.2-2.4-5.3,0-8.6,3.3-8.6,9.8v27.8h-15.9.2v-.3Z" />
        <path fill="#00bbb4" d="M534,197.1c0-15.1,11.9-26.4,27-26.4s25.4,10.6,25.4,25.2-.2,3.8-.8,6.3h-36c.2.9.5,1.7.9,2.4,2.1,4.1,6.2,6.5,11.5,6.5s8.9-1.7,12.1-5.1l8.8,8.8c-5,5.9-12.2,8.8-20.7,8.8-16.3,0-28.3-11-28.3-26.4h0ZM571.6,191.5c-1.2-5.3-4.8-8.5-10.6-8.5s-10,3.3-11.5,8.6h22.1v-.2Z" />
        <path fill="#00bbb4" d="M628.8,183.4h-13.1v19.9c0,5,2,8.5,7.3,8.5s2.3,0,3.2-.3c.9,0,1.7-.3,2.6-.8v11.9c-1.4.5-2.7.9-3.9.9-1.4.3-2.7.3-4.1.3-13.3-.2-19.8-6.5-19.8-19.9v-20.7c.2,0-9.5,0-9.5,0v-11.2h9.8v-12.4l15.1-3.8v16.2h13v11.2h-.3l-.2.2Z" />
        <path fill="#00bbb4" d="M637.4,156.3c0-5,3.6-8.8,8.6-8.8s8.5,3.8,8.5,8.8-3.5,8.8-8.5,8.8-8.6-3.8-8.6-8.8ZM637.8,222.5v-50.3h15.9v50.3h-15.9Z" />
        <path fill="#00bbb4" d="M714.1,190.3v32.2h-15.9v-28.7c0-5-3.5-8.8-8.6-8.8s-8.8,3.5-8.8,8.8v28.7h-15.9v-50.5h12.4l3.5,3.9h0c3.5-3.5,9.4-5,14.2-5,10.6,0,19.2,8.5,19.2,19.2h0l-.2.2Z" />
        <path fill="#00bbb4" d="M727,243.6l11.3-24.6-19.2-47h17.1l10,30.7,10.3-30.7h17.1l-30.5,71.8h-16.2l.2-.2Z" />
    </g>
</svg>
