<?xml version="1.0" encoding="UTF-8"?>
<svg xmlns="http://www.w3.org/2000/svg"
        width="124"
        height="23"
        viewBox="0 0 1946.285 310.987"
        preserveAspectRatio="xMidYMid meet">
        <g>
            <g>
                <path d="M160.995,172.341l3.353,2.466c31.617,0,55.829-8.725,71.022-23.918,15.085-16.753,22.546-40.676,21.966-63.212.376-15.884-6.873-32.325-14.759-46.119H92.44A39.919,39.919,0,0,0,52.519,81.475v106.59c0,1.019.085,2.013.155,3.013v11.739A29.3,29.3,0,0,0,81.987,232.1l14.49-.005.086.005h31v.256h0l3.584-26.068c0-18.459,13.025-30.506,31.484-30.508" fill="#fff"/>
                <path d="M1902.567,99.976l-38.008,77.92-42.448-77.92h-44.98l65.239,116.561-50.317,93.129h43.718l110.514-209.69Z" fill="#0e2639"/>
                <path d="M1695.785,129.741a37.289,37.289,0,0,0-38.03,36.531v0q-.025,1.053.016,2.107a38.02,38.02,0,1,0,76.017,1.908c.016-.633.016-1.271,0-1.908a37.287,37.287,0,0,0-35.9-38.62h0c-.7-.027-1.4-.032-2.1-.021m34.212-12.033V99.969h38.64V237.121h-38.64V219.382a49.183,49.183,0,0,1-42.16,22.173c-42.168,0-70.012-32.942-70.012-73.192,0-40.576,27.56-72.849,68.1-72.849a49.667,49.667,0,0,1,44.029,22.172" fill="#0e2639"/>
                <path d="M1516.143,61.333V123.39h16.785a42.173,42.173,0,0,0,26.933-6.657,31.532,31.532,0,0,0,11.4-24.708,29.09,29.09,0,0,0-11.718-24.076A49.6,49.6,0,0,0,1530.4,61.3Zm-41.187-35.477h61.451c23.754,0,40.223,2.536,55.742,16.152A67.3,67.3,0,0,1,1613.689,93a67.906,67.906,0,0,1-17.423,47.2c-11.719,11.719-29.142,18.688-53.528,18.688h-26.6v78.236h-41.177Z" fill="#0e2639"/>
                <path d="M1370.112,129.741a37.3,37.3,0,0,0-38.03,36.55q-.024,1.046.016,2.091a38.02,38.02,0,0,0,76.017,1.908c.016-.633.016-1.271,0-1.908a37.288,37.288,0,0,0-35.9-38.617c-.7-.027-1.4-.032-2.1-.021m34.21-12.036V99.969h38.641V237.121h-38.641V219.382a49.183,49.183,0,0,1-42.163,22.172c-42.168,0-70.013-32.942-70.013-73.192,0-40.576,27.56-72.849,68.1-72.849a49.667,49.667,0,0,1,44.029,22.172" fill="#0e2639"/>
                <path d="M1059.464,237.133V99.975H1098.1V115.5a50.436,50.436,0,0,1,40.86-19.948,45.335,45.335,0,0,1,43.4,25.019,50.5,50.5,0,0,1,44.025-25.019,43.506,43.506,0,0,1,37.06,16.785c8.867,11.719,9.5,23.438,9.5,38.641v86.16h-38.637V162.352c0-16.152-3.485-23.438-6.363-26.922a19.446,19.446,0,0,0-15.841-6.969,22.7,22.7,0,0,0-21.224,12.035A52.175,52.175,0,0,0,1185.5,167.1v70.013h-38.64V162.327c0-16.152-3.485-23.438-6.363-26.922a19.414,19.414,0,0,0-15.841-6.969,22.667,22.667,0,0,0-21.219,12.035,52.152,52.152,0,0,0-5.382,26.606v70.007Z" fill="#0e2639"/>
                <path d="M960.947,129.754a37.209,37.209,0,0,0-25.657,9.5A37.612,37.612,0,0,0,922.944,168.4a38.1,38.1,0,0,0,10.127,26.933,37.531,37.531,0,0,0,27.844,12.035,38.826,38.826,0,0,0,25.657-9.5,40.392,40.392,0,0,0,12.357-29.436,39.026,39.026,0,0,0-11.092-27.55,35.2,35.2,0,0,0-26.89-11.124m33.575-12.035V99.978h38.638V230.8c0,20.907-1.9,42.758-19,59.865-9.51,9.5-25.979,19.326-54.166,19.326-26.611,0-42.452-7.955-51.314-15.841a76.008,76.008,0,0,1-22.173-40.86h41.825a32.885,32.885,0,0,0,9.5,16.469,34.08,34.08,0,0,0,23.438,7.285,32.618,32.618,0,0,0,23.438-8.551,38.656,38.656,0,0,0,9.816-30.407V218.766a48.074,48.074,0,0,1-42.164,22.812,64.944,64.944,0,0,1-47.513-18.7A75.344,75.344,0,0,1,882.986,168.4,76.3,76.3,0,0,1,904.2,113.924,67.118,67.118,0,0,1,951.4,95.552a48.258,48.258,0,0,1,43.08,22.172" fill="#0e2639"/>
                <path d="M790.864,129.741a37.3,37.3,0,0,0-38.03,36.55q-.024,1.046.016,2.091a38.02,38.02,0,0,0,76.017,1.9c.016-.633.016-1.265,0-1.9a37.288,37.288,0,0,0-35.907-38.62c-.7-.027-1.4-.032-2.1-.021m34.207-12.035V99.969h38.647V237.121H825.072V219.382a49.183,49.183,0,0,1-42.163,22.172c-42.169,0-70.013-32.942-70.013-73.192,0-40.576,27.56-72.849,68.1-72.849a49.667,49.667,0,0,1,44.029,22.172" fill="#0e2639"/>
                <path d="M619.376,237.133V99.975h38.641v20.591a46.263,46.263,0,0,1,17.106-19.01,42.029,42.029,0,0,1,22.8-6.01A47.258,47.258,0,0,1,714.4,98.725l-5.066,36.111a29.021,29.021,0,0,0-18.05-5.066,31.575,31.575,0,0,0-25.657,11.082,47.111,47.111,0,0,0-7.607,30.407v65.879Z" fill="#0e2639"/>
                <path d="M507.667,61.333V123.39h16.79a42.167,42.167,0,0,0,26.927-6.657,31.551,31.551,0,0,0,11.4-24.708,29.107,29.107,0,0,0-11.712-24.076A49.6,49.6,0,0,0,521.93,61.3ZM466.49,25.856h61.451c23.754,0,40.222,2.536,55.742,16.152A67.3,67.3,0,0,1,605.223,93,67.907,67.907,0,0,1,587.8,140.2c-11.719,11.719-29.142,18.688-53.528,18.688h-26.6v78.236H466.49Z" fill="#0e2639"/>
                <path d="M289.389,41.691h-46.8a87.238,87.238,0,0,1,11.478,45.363,88.058,88.058,0,0,1-22.591,61.189c-15.193,15.193-37.783,24.231-69.4,24.231h-1.068A33.428,33.428,0,0,0,127.584,205.9v26.338H289.389A44.039,44.039,0,0,0,333.428,188.2V85.73a44.039,44.039,0,0,0-44.039-44.039" fill="#f43454"/>
                <path d="M96.576,232.237l-.086-.005L82,232.237A29.3,29.3,0,0,1,52.687,202.95V191.211c-.07-1-.155-1.994-.155-3.013V81.608A39.919,39.919,0,0,1,92.453,41.691H242.589a87.434,87.434,0,0,0-16.447-20.752C206.017,3.292,184.665,0,153.867,0h-89.8A64.065,64.065,0,0,0,0,64.063V219.039C0,249.28,25.5,273.8,57,273.918h.482l16.715-.005H98.28a29.3,29.3,0,0,0,29.3-29.3V232.237Z" fill="#3e4cb4"/>
            </g>
        </g>
<!--    </g>-->
</svg>