<svg viewBox="0 0 1448 609" fill="none" xmlns="http://www.w3.org/2000/svg" width="59px" height="25px">
    <path d="M0 304.493C0 180.585 0 118.631 30.3995 74.5079C42.2947 57.2427 57.2427 42.2947 74.5079 30.3995C118.631 0 180.585 0 304.493 0H1142.75C1266.65 0 1328.61 0 1372.73 30.3995C1390 42.2947 1404.95 57.2427 1416.84 74.5079C1447.24 118.631 1447.24 180.585 1447.24 304.493C1447.24 428.402 1447.24 490.356 1416.84 534.479C1404.95 551.744 1390 566.692 1372.73 578.587C1328.61 608.987 1266.65 608.987 1142.75 608.987H304.494C180.585 608.987 118.631 608.987 74.5079 578.587C57.2427 566.692 42.2947 551.744 30.3995 534.479C0 490.356 0 428.402 0 304.493Z" fill="#FFA8CD"/>
    <path d="M1166.17 389.005C1140.92 389.005 1121.24 368.125 1121.24 342.771C1121.24 317.416 1140.92 296.536 1166.17 296.536C1191.42 296.536 1211.1 317.416 1211.1 342.771C1211.1 368.125 1191.42 389.005 1166.17 389.005ZM1153.54 437.85C1175.08 437.85 1202.56 429.647 1217.79 397.581L1219.27 398.327C1212.59 415.851 1212.59 426.292 1212.59 428.902V433.003H1266.8V252.538H1212.59V256.64C1212.59 259.25 1212.59 269.69 1219.27 287.214L1217.79 287.96C1202.56 255.894 1175.08 247.691 1153.54 247.691C1101.93 247.691 1065.54 288.706 1065.54 342.771C1065.54 396.835 1101.93 437.85 1153.54 437.85ZM971.216 247.691C946.707 247.691 927.397 256.267 911.801 287.96L910.316 287.214C917 269.69 917 259.25 917 256.64V252.538H862.784V433.003H918.485V337.923C918.485 312.942 932.968 297.281 956.362 297.281C979.757 297.281 991.268 310.704 991.268 337.55V433.003H1046.97V318.162C1046.97 277.147 1015.03 247.691 971.216 247.691ZM782.203 287.96L780.717 287.214C787.401 269.69 787.401 259.25 787.401 256.64V252.538H733.186V433.003H788.887L789.258 346.126C789.258 320.772 802.626 305.484 824.536 305.484C830.477 305.484 835.305 306.23 840.875 307.722V252.538C816.366 247.318 794.457 256.64 782.203 287.96ZM605.073 389.005C579.821 389.005 560.14 368.125 560.14 342.771C560.14 317.416 579.821 296.536 605.073 296.536C630.324 296.536 650.005 317.416 650.005 342.771C650.005 368.125 630.324 389.005 605.073 389.005ZM592.447 437.85C613.985 437.85 641.464 429.647 656.689 397.581L658.174 398.327C651.49 415.851 651.49 426.292 651.49 428.902V433.003H705.706V252.538H651.49V256.64C651.49 259.25 651.49 269.69 658.174 287.214L656.689 287.96C641.464 255.894 613.985 247.691 592.447 247.691C540.83 247.691 504.439 288.706 504.439 342.771C504.439 396.835 540.83 437.85 592.447 437.85ZM426.828 433.003H482.53V172H426.828V433.003ZM385.981 172H329.165C329.165 218.608 300.572 260.368 257.125 290.197L240.043 302.129V172H181V433.003H240.043V303.62L337.706 433.003H409.747L315.797 309.213C358.501 278.266 386.352 230.166 385.981 172Z" fill="#0B051D"/>
</svg>