<?xml version="1.0" encoding="UTF-8"?>
<svg xmlns="http://www.w3.org/2000/svg" xmlns:xlink="http://www.w3.org/1999/xlink" height="25px" viewBox="0 0 189 56" version="1.1">
<g id="surface1">
<path style=" stroke:none;fill-rule:nonzero;fill:rgb(65.490196%,1.960784%,51.764706%);fill-opacity:1;" d="M 29.460938 31.347656 L 29.460938 41.796875 L 18.949219 41.796875 L 18.949219 31.347656 Z M 29.460938 31.347656 "/>
<path style=" stroke:none;fill-rule:nonzero;fill:rgb(21.176471%,70.980392%,52.941176%);fill-opacity:1;" d="M 29.414062 17.171875 L 29.414062 27.703125 L 18.90625 27.703125 L 18.90625 17.171875 Z M 29.414062 17.171875 "/>
<path style=" stroke:none;fill-rule:nonzero;fill:rgb(98.039216%,81.568627%,35.686275%);fill-opacity:1;" d="M 15.398438 31.21875 L 15.398438 41.753906 L 4.886719 41.753906 L 4.886719 31.21875 Z M 15.398438 31.21875 "/>
<path style=" stroke:none;fill-rule:evenodd;fill:rgb(0%,0%,0%);fill-opacity:1;" d="M 60.796875 16.511719 C 60.796875 23.773438 54.96875 29.617188 47.449219 29.617188 L 41.726562 29.617188 L 41.726562 41.628906 L 33.007812 41.628906 L 33.007812 3.410156 L 47.449219 3.410156 C 54.96875 3.410156 60.796875 9.253906 60.796875 16.511719 Z M 52.082031 16.511719 C 52.082031 13.722656 50.117188 11.59375 47.449219 11.59375 L 41.726562 11.59375 L 41.726562 21.425781 L 47.449219 21.425781 C 50.117188 21.425781 52.082031 19.300781 52.082031 16.511719 Z M 52.082031 16.511719 "/>
<path style=" stroke:none;fill-rule:evenodd;fill:rgb(0%,0%,0%);fill-opacity:1;" d="M 91.203125 13.585938 L 91.203125 41.621094 L 82.8125 41.621094 L 82.8125 38.988281 C 80.96875 41.113281 78.226562 42.40625 74.480469 42.40625 C 67.152344 42.40625 61.109375 35.960938 61.109375 27.605469 C 61.109375 19.25 67.152344 12.804688 74.480469 12.804688 C 78.226562 12.804688 80.960938 14.09375 82.8125 16.222656 L 82.8125 13.589844 Z M 82.8125 27.605469 C 82.8125 23.398438 80.011719 20.761719 76.15625 20.761719 C 72.300781 20.761719 69.5 23.398438 69.5 27.605469 C 69.5 31.804688 72.300781 34.449219 76.15625 34.449219 C 80.011719 34.449219 82.8125 31.804688 82.8125 27.605469 Z M 82.8125 27.605469 "/>
<path style=" stroke:none;fill-rule:evenodd;fill:rgb(0%,0%,0%);fill-opacity:1;" d="M 123.074219 13.585938 L 113.582031 40.589844 C 110.46875 49.441406 105.523438 52.949219 97.746094 52.5625 L 97.746094 44.765625 C 101.636719 44.765625 103.472656 43.535156 104.695312 40.144531 L 93.644531 13.585938 L 102.808594 13.585938 L 108.976562 30.621094 L 114.199219 13.585938 Z M 123.074219 13.585938 "/>
<path style=" stroke:none;fill-rule:evenodd;fill:rgb(0%,0%,0%);fill-opacity:1;" d="M 154.140625 16.511719 C 154.140625 23.773438 148.308594 29.617188 140.789062 29.617188 L 135.066406 29.617188 L 135.066406 41.628906 L 126.351562 41.628906 L 126.351562 3.410156 L 140.789062 3.410156 C 148.300781 3.410156 154.140625 9.253906 154.140625 16.511719 Z M 145.421875 16.511719 C 145.421875 13.722656 143.460938 11.59375 140.789062 11.59375 L 135.066406 11.59375 L 135.066406 21.425781 L 140.789062 21.425781 C 143.460938 21.425781 145.421875 19.300781 145.421875 16.511719 Z M 145.421875 16.511719 "/>
<path style=" stroke:none;fill-rule:evenodd;fill:rgb(0%,0%,0%);fill-opacity:1;" d="M 155.230469 27.988281 C 155.230469 19.847656 161.660156 13.566406 169.667969 13.566406 C 177.679688 13.566406 184.113281 19.847656 184.113281 27.988281 C 184.113281 36.121094 177.679688 42.40625 169.667969 42.40625 C 161.660156 42.40625 155.230469 36.125 155.230469 27.988281 Z M 175.9375 27.988281 C 175.9375 24.109375 173.210938 21.542969 169.667969 21.542969 C 166.125 21.542969 163.402344 24.109375 163.402344 27.988281 C 163.402344 31.859375 166.125 34.429688 169.667969 34.429688 C 173.210938 34.429688 175.9375 31.863281 175.9375 27.988281 Z M 175.9375 27.988281 "/>
</g>
</svg>
