<svg version="1.1" viewBox="0 0 61.8 25" width="61.8" height="25" xmlns="http://www.w3.org/2000/svg">
 <g transform="scale(1.236)">
  <path d="m5.8711 0h38.258c3.2422 0 5.8711 2.6289 5.8711 5.8711v8.4844c0 3.2422-2.6289 5.8711-5.8711 5.8711h-38.258c-3.2422 0-5.8711-2.6289-5.8711-5.8711v-8.4844c0-3.2422 2.6289-5.8711 5.8711-5.8711z" fill="#ffb3c7"/>
  <g>
   <path d="m40.039 8.8633c-1.2891-0.87891-3.0352-0.66016-4.0664 0.50781-1.0352 1.1719-1.0352 2.9297 0 4.0977 1.0312 1.1719 2.7773 1.3906 4.0664 0.51172v0.375h1.7578v-5.8672h-1.7578zm-1.5977 4.0664c-0.82422-0.04297-1.4609-0.73828-1.4336-1.5625 0.03125-0.82422 0.71484-1.4727 1.5391-1.457s1.4844 0.6875 1.4844 1.5117c-0.02344 0.85547-0.73438 1.5312-1.5898 1.5078z"/>
   <path d="m14.102 5.8711h1.8398v8.4844h-1.8398z"/>
   <path d="m32.078 8.3281c-0.70312-0.042969-1.3789 0.26562-1.8125 0.82031v-0.66016h-1.75v5.8672h1.7734v-3.0859c-0.02734-0.35547 0.10156-0.71094 0.35547-0.96484 0.25391-0.25391 0.60547-0.38672 0.96094-0.36328 0.77344 0 1.2188 0.46094 1.2188 1.3164v3.0977h1.7539v-3.7305c0-1.3672-1.0859-2.2969-2.5-2.2969z"/>
   <path d="m21.5 8.8633c-1.2891-0.87891-3.0312-0.66016-4.0664 0.50781-1.0312 1.1719-1.0312 2.9297 0 4.0977 1.0352 1.1719 2.7773 1.3906 4.0664 0.51172v0.375h1.7578v-5.8672h-1.7578zm-1.5977 4.0664c-0.82422-0.04297-1.4609-0.73828-1.4336-1.5625 0.03125-0.82422 0.71484-1.4727 1.5391-1.457 0.82422 0.011719 1.4844 0.6875 1.4844 1.5117-0.02344 0.85547-0.73438 1.5312-1.5898 1.5078z"/>
   <path d="m25.977 9.25v-0.76172h-1.8008v5.8672h1.8047v-2.7383c0-0.92578 1-1.4219 1.6953-1.4219h0.02344v-1.707c-0.66016-0.019531-1.293 0.26172-1.7227 0.76172z"/>
   <path d="m43.66 12.273c-0.60938 0-1.1016 0.49609-1.1016 1.1016 0 0.60938 0.49219 1.1055 1.1016 1.1055s1.1055-0.49609 1.1055-1.1055-0.49609-1.1016-1.1055-1.1016z"/>
   <path d="m12.832 5.8711h-1.9023c0.0039 1.5469-0.72656 3.0078-1.9727 3.9336l-0.75391 0.5625 2.9258 3.9922h2.4062l-2.6953-3.6719c1.2852-1.2734 2-3.0117 1.9922-4.8164z"/>
   <path d="m6.0586 5.8711h1.9102v8.4883h-1.9102z"/>
  </g>
 </g>
</svg>
