<svg version="1.1" width="47.094" height="25" viewBox="0 0 47.094 25" xmlns="http://www.w3.org/2000/svg">
 <path id="b" d="m34.569 0h-22.044c-6.8884 0-12.525 5.625-12.525 12.5s5.6361 12.5 12.525 12.5h22.044c6.8884 0 12.525-5.625 12.525-12.5s-5.6361-12.5-12.525-12.5z" fill="#fff" stroke-width=".10761"/>
 <path id="c" d="m34.569 1.0125c1.5468 0 3.0498 0.30625 4.4651 0.90628 1.3715 0.58125 2.5989 1.4125 3.6635 2.4688 1.0583 1.0563 1.8912 2.2875 2.4737 3.6562 0.60116 1.4125 0.90802 2.9125 0.90802 4.4563 0 1.5437-0.30685 3.0437-0.90802 4.4563-0.58238 1.3687-1.4153 2.5937-2.4737 3.6562-1.0583 1.0563-2.292 1.8875-3.6635 2.4688-1.4153 0.6-2.9183 0.90628-4.4651 0.90628h-22.044c-1.5468 0-3.0498-0.30625-4.4651-0.90628-1.3715-0.58125-2.5989-1.4125-3.6635-2.4688-1.0583-1.0562-1.8912-2.2875-2.4737-3.6562-0.60116-1.4125-0.90802-2.9125-0.90802-4.4563s0.30685-3.0437 0.90802-4.4563c0.58238-1.3687 1.4153-2.5937 2.4737-3.6562 1.0583-1.0563 2.292-1.8875 3.6635-2.4688 1.4153-0.6 2.9183-0.90628 4.4651-0.90628h22.044m0-1.0125h-22.044c-6.8884 0-12.525 5.625-12.525 12.5s5.6361 12.5 12.525 12.5h22.044c6.8884 0 12.525-5.625 12.525-12.5s-5.6361-12.5-12.525-12.5z" fill="#3c4043" stroke-width=".062564"/>
 <g id="d" transform="matrix(.062622 0 0 .0625 -10.69 -10.625)">
  <g id="e" fill="#3c4043">
   <path id="f" d="m529.3 384.2v60.5h-19.2v-149.4h50.9c12.9 0 23.9 4.3 32.9 12.9 9.2 8.6 13.8 19.1 13.8 31.5 0 12.7-4.6 23.2-13.8 31.7-8.9 8.5-19.9 12.7-32.9 12.7h-31.7zm0-70.5v52.1h32.1c7.6 0 14-2.6 19-7.7 5.1-5.1 7.7-11.3 7.7-18.3 0-6.9-2.6-13-7.7-18.1-5-5.3-11.3-7.9-19-7.9h-32.1z"/>
   <path id="g" d="m657.9 339.1c14.2 0 25.4 3.8 33.6 11.4s12.3 18 12.3 31.2v63h-18.3v-14.2h-0.8c-7.9 11.7-18.5 17.5-31.7 17.5-11.3 0-20.7-3.3-28.3-10s-11.4-15-11.4-25c0-10.6 4-19 12-25.2 8-6.3 18.7-9.4 32-9.4 11.4 0 20.8 2.1 28.1 6.3v-4.4c0-6.7-2.6-12.3-7.9-17s-11.5-7-18.6-7c-10.7 0-19.2 4.5-25.4 13.6l-16.9-10.6c9.3-13.5 23.1-20.2 41.3-20.2zm-24.8 74.2c0 5 2.1 9.2 6.4 12.5 4.2 3.3 9.2 5 14.9 5 8.1 0 15.3-3 21.6-9s9.5-13 9.5-21.1c-6-4.7-14.3-7.1-25-7.1-7.8 0-14.3 1.9-19.5 5.6-5.3 3.9-7.9 8.6-7.9 14.1z"/>
   <path id="h" d="m808.2 342.4-64 147.2h-19.8l23.8-51.5-42.2-95.7h20.9l30.4 73.4h0.4l29.6-73.4z"/>
  </g>
  <g id="i">
   <path d="m452.93 372c0-6.26-0.56-12.25-1.6-18.01h-80.48v33l46.35 0.01c-1.88 10.98-7.93 20.34-17.2 26.58v21.41h27.59c16.11-14.91 25.34-36.95 25.34-62.99z" fill="#4285f4"/>
   <path id="j" d="m400.01 413.58c-7.68 5.18-17.57 8.21-29.14 8.21-22.35 0-41.31-15.06-48.1-35.36h-28.46v22.08c14.1 27.98 43.08 47.18 76.56 47.18 23.14 0 42.58-7.61 56.73-20.71z" fill="#34a853"/>
   <path id="k" d="m320.09 370.05c0-5.7 0.95-11.21 2.68-16.39v-22.08h-28.46c-5.83 11.57-9.11 24.63-9.11 38.47s3.29 26.9 9.11 38.47l28.46-22.08c-1.73-5.18-2.68-10.69-2.68-16.39z" fill="#fabb05"/>
   <path d="m370.87 318.3c12.63 0 23.94 4.35 32.87 12.85l24.45-24.43c-14.85-13.83-34.21-22.32-57.32-22.32-33.47 0-62.46 19.2-76.56 47.18l28.46 22.08c6.79-20.3 25.75-35.36 48.1-35.36z" fill="#e94235"/>
  </g>
 </g>
</svg>
