<svg version="1.1" height="25" width="91" viewBox="0 0 91 25" xmlns="http://www.w3.org/2000/svg">
 <g transform="matrix(.50774 0 0 .50832 -2.4808 -1.7334)">
  <path d="m29.461 31.348v10.449h-10.512v-10.449z" fill="#a60282"/>
  <path d="m29.414 17.172v10.531h-10.508v-10.531z" fill="#35b385"/>
  <path d="m15.398 31.219v10.535h-10.512v-10.535z" fill="#facf59"/>
  <g fill-rule="evenodd">
   <path d="m60.797 16.512c0 7.2617-5.8281 13.105-13.348 13.105h-5.7227v12.012h-8.7188v-38.219h14.441c7.5195 0 13.348 5.8438 13.348 13.102zm-8.7148 0c0-2.7891-1.9648-4.918-4.6328-4.918h-5.7227v9.832h5.7227c2.668 0 4.6328-2.125 4.6328-4.9141z"/>
   <path d="m91.203 13.586v28.035h-8.3906v-2.6328c-1.8438 2.125-4.5859 3.418-8.332 3.418-7.3281 0-13.371-6.4453-13.371-14.801s6.043-14.801 13.371-14.801c3.7461 0 6.4805 1.2891 8.332 3.418v-2.6328zm-8.3906 14.02c0-4.207-2.8008-6.8438-6.6562-6.8438s-6.6562 2.6367-6.6562 6.8438c0 4.1992 2.8008 6.8438 6.6562 6.8438s6.6562-2.6445 6.6562-6.8438z"/>
   <path d="m123.07 13.586-9.4922 27.004c-3.1133 8.8516-8.0586 12.359-15.836 11.973v-7.7969c3.8906 0 5.7266-1.2305 6.9492-4.6211l-11.051-26.559h9.1641l6.168 17.035 5.2227-17.035z"/>
   <path d="m154.14 16.512c0 7.2617-5.832 13.105-13.352 13.105h-5.7226v12.012h-8.7148v-38.219h14.438c7.5117 0 13.352 5.8438 13.352 13.102zm-8.7188 0c0-2.7891-1.9609-4.918-4.6328-4.918h-5.7226v9.832h5.7226c2.6719 0 4.6328-2.125 4.6328-4.9141z"/>
   <path d="m155.23 27.988c0-8.1406 6.4297-14.422 14.438-14.422 8.0117 0 14.445 6.2812 14.445 14.422 0 8.1328-6.4336 14.418-14.445 14.418-8.0078 0-14.438-6.2812-14.438-14.418zm20.707 0c0-3.8789-2.7266-6.4453-6.2695-6.4453s-6.2656 2.5664-6.2656 6.4453c0 3.8711 2.7227 6.4414 6.2656 6.4414s6.2695-2.5664 6.2695-6.4414z"/>
  </g>
 </g>
</svg>
