<svg width="83" height="25" viewBox="0 0 116 34" fill="none" xmlns="http://www.w3.org/2000/svg">
<path d="M59.4162 31.2417V32.8517H58.9961V32.5406C58.7683 32.7395 58.4252 32.9062 58.0179 32.9062C57.4277 32.9062 57.075 32.5566 57.075 32.0884C57.075 31.6201 57.463 31.2802 58.1782 31.2802H58.9961C58.9896 30.751 58.701 30.5008 58.2007 30.5008C57.8735 30.5008 57.6138 30.6323 57.4213 30.783L57.2193 30.4655C57.5207 30.2346 57.8703 30.1191 58.2552 30.1191C58.98 30.1191 59.4162 30.5104 59.4162 31.2417ZM58.9961 32.1044V31.633H58.2231C57.71 31.633 57.524 31.8478 57.524 32.0884C57.524 32.3289 57.7228 32.5342 58.1012 32.5342C58.4444 32.5342 58.7587 32.3642 58.9961 32.1076" fill="#3C3C3B"/>
<path d="M93.4574 30.5425L93.1847 30.828C92.9827 30.6323 92.7422 30.5169 92.4535 30.5169C91.9147 30.5169 91.5074 30.937 91.5074 31.5111C91.5074 32.0852 91.9147 32.5086 92.4535 32.5086C92.7454 32.5086 93.0051 32.3771 93.1944 32.1943L93.4574 32.4829C93.2136 32.7587 92.8608 32.9031 92.4631 32.9031C91.6389 32.9031 91.0776 32.3033 91.0776 31.5079C91.0776 30.7125 91.6421 30.116 92.4631 30.116C92.8576 30.116 93.2168 30.2635 93.4574 30.5361V30.5425Z" fill="#3C3C3B"/>
<path d="M96.7512 31.5111C96.7512 32.3065 96.1451 32.9062 95.3401 32.9062C94.5351 32.9062 93.9321 32.3065 93.9321 31.5111C93.9321 30.7157 94.5351 30.1191 95.3401 30.1191C96.1451 30.1191 96.7512 30.7189 96.7512 31.5111ZM94.3619 31.5111C94.3619 32.0916 94.782 32.5085 95.3401 32.5085C95.8981 32.5085 96.3183 32.0916 96.3183 31.5111C96.3183 30.9306 95.8949 30.5168 95.3401 30.5168C94.7852 30.5168 94.3619 30.937 94.3619 31.5111Z" fill="#3C3C3B"/>
<path d="M101.995 31.1935V32.8549H101.575V31.3314C101.575 30.8215 101.292 30.5232 100.799 30.5232C100.35 30.5232 99.9775 30.8343 99.9775 31.3443V32.8549H99.5574V31.3314C99.5574 30.8215 99.2751 30.5232 98.7844 30.5232C98.3354 30.5232 97.9634 30.8343 97.9634 31.3443V32.8549H97.54V30.1768H97.9602V30.5585C98.1783 30.2378 98.5343 30.1223 98.8614 30.1223C99.3296 30.1223 99.6921 30.334 99.8652 30.6836C100.08 30.2666 100.5 30.1223 100.876 30.1223C101.539 30.1223 101.995 30.5457 101.995 31.1935Z" fill="#3C3C3B"/>
<path d="M105.693 31.5111C105.693 32.3161 105.106 32.9062 104.355 32.9062C103.913 32.9062 103.592 32.7266 103.38 32.4572V33.9838H102.957V30.1736H103.38V30.5713C103.592 30.2987 103.916 30.1223 104.355 30.1223C105.109 30.1223 105.693 30.7092 105.693 31.5143V31.5111ZM103.352 31.5111C103.352 32.0787 103.746 32.5085 104.304 32.5085C104.862 32.5085 105.26 32.0659 105.26 31.5111C105.26 30.9562 104.872 30.5168 104.304 30.5168C103.736 30.5168 103.352 30.9466 103.352 31.5111Z" fill="#3C3C3B"/>
<path d="M108.733 31.2417V32.8517H108.313V32.5406C108.085 32.7395 107.742 32.9062 107.335 32.9062C106.745 32.9062 106.392 32.5566 106.392 32.0884C106.392 31.6201 106.78 31.2802 107.495 31.2802H108.313C108.307 30.751 108.018 30.5008 107.518 30.5008C107.19 30.5008 106.927 30.6323 106.738 30.783L106.536 30.4655C106.838 30.2346 107.187 30.1191 107.572 30.1191C108.297 30.1191 108.733 30.5104 108.733 31.2417ZM108.313 32.1044V31.633H107.54C107.027 31.633 106.841 31.8478 106.841 32.0884C106.841 32.3289 107.04 32.5342 107.418 32.5342C107.761 32.5342 108.076 32.3642 108.313 32.1076" fill="#3C3C3B"/>
<path d="M112.13 31.1904V32.8517H111.709V31.3283C111.709 30.8183 111.427 30.52 110.937 30.52C110.488 30.52 110.115 30.8311 110.115 31.3411V32.8517H109.692V30.1737H110.112V30.5553C110.33 30.2346 110.686 30.1191 111.014 30.1191C111.674 30.1191 112.13 30.5425 112.13 31.1904Z" fill="#3C3C3B"/>
<path d="M113.278 33.9968H112.81L113.807 32.2745L112.575 30.177H113.047L114.044 31.8576L114.99 30.177H115.455L113.275 34L113.278 33.9968Z" fill="#3C3C3B"/>
<path fill-rule="evenodd" clip-rule="evenodd" d="M85.6381 30.5425L84.0474 28.7785H83.6657V32.8517H84.7273V31.0396L85.5868 31.9441H85.7023L86.5682 31.0396V32.8517H87.6298V28.7785H87.2578L85.6381 30.5425ZM75.6959 31.4117C76.7222 30.7157 76.4335 28.7945 74.8363 28.7881H73.0532V32.8517H73.5471L74.0891 31.6554H74.6279L75.3238 32.8517H76.4848V32.701L75.6895 31.4117H75.6959ZM74.8363 30.7317H74.0923V29.715C74.336 29.715 74.5926 29.7086 74.8363 29.715C75.4297 29.7214 75.3976 30.7317 74.8363 30.7317ZM70.5066 32.8517H71.5233V32.701L69.6888 28.7368H69.243L67.4149 32.701V32.8517H68.4316L68.6689 32.3418H70.2693L70.5066 32.8517ZM69.9326 31.4534H69.0025L69.4611 30.3853L69.9326 31.4534ZM63.6272 32.8517L64.1693 31.8126H64.9165C66.8601 31.8126 66.8601 28.7945 64.9165 28.7881H63.1301V32.8517H63.6272ZM64.9133 30.8793H64.1693V29.7182C64.4066 29.7182 64.6696 29.7118 64.9133 29.7182C65.5163 29.7246 65.481 30.8793 64.9133 30.8793ZM81.116 32.8517H82.1327V32.701L80.2982 28.7368H79.8524L78.0243 32.701V32.8517H79.041L79.2783 32.3418H80.8787L81.116 32.8517ZM80.5419 31.4534H79.6118L80.0705 30.3853L80.5419 31.4534Z" fill="#420A87"/>
<path d="M48.313 19.901V14.0991H51.2027V11.1484H48.313V7.54345H44.6504V11.1484H42.6523V14.0991H44.6504V20.3756C44.6504 23.3263 46.3534 24.6316 49.0058 24.6316C50.016 24.6316 50.8852 24.452 51.3631 24.2147V20.9658C50.9461 21.264 50.2951 21.4404 49.7787 21.4404C48.9064 21.3827 48.313 20.9048 48.313 19.8945M56.2123 11.142H52.5497L56.5491 24.3302H59.9166L62.0943 16.2319L64.272 24.3302H67.6363L71.6357 11.142H68.0917L65.7344 19.5385L63.5151 11.142H60.7441L58.5664 19.5385L56.2091 11.142H56.2123ZM73.5985 11.142H77.2611V24.3879H73.5985V11.142ZM87.3412 16.5269L84.628 15.8727C83.7973 15.6353 83.4413 15.3371 83.4413 14.8047C83.4413 13.974 84.3329 13.557 85.202 13.557C86.4496 13.557 87.0237 14.1504 87.2611 14.8656H90.7473C90.2726 12.3896 88.4509 10.786 85.1443 10.786C82.1937 10.786 79.8974 12.5083 79.8974 15.1029C79.8974 17.3608 81.3021 18.3487 83.3226 18.8265L85.975 19.4199C86.9243 19.6572 87.322 19.9555 87.322 20.5488C87.322 21.4404 86.5491 21.8574 85.4394 21.8574C84.3297 21.8574 83.499 21.3218 83.2008 20.3724H79.5574C79.9743 23.0858 82.2097 24.6284 85.4586 24.6284C88.5279 24.6284 90.8852 23.0248 90.8852 20.3115C90.8852 18.3711 89.6376 17.0658 87.3412 16.5301M97.7774 19.8945V14.0926H100.667V11.142H97.7774V7.53704H94.1148V11.142H92.1135V14.0926H94.1148V20.3692C94.1148 23.3199 95.8178 24.6252 98.4702 24.6252C99.4804 24.6252 100.35 24.4456 100.827 24.2083V20.9594C100.411 21.2576 99.7595 21.434 99.2431 21.434C98.313 21.3763 97.7774 20.8984 97.7774 19.8881M108.688 10.8405C104.846 10.8405 101.799 13.9098 101.799 17.7521C101.799 21.5944 104.869 24.6637 108.688 24.6637C112.508 24.6637 115.58 21.5944 115.58 17.7521C115.58 13.9098 112.511 10.8405 108.688 10.8405ZM108.688 21.078C106.867 21.078 105.324 19.5321 105.324 17.7136C105.324 15.8951 106.847 14.346 108.688 14.346C110.529 14.346 112.056 15.8919 112.056 17.7136C112.056 19.5353 110.51 21.078 108.688 21.078ZM75.4426 5.69287C76.4529 5.69287 77.2643 6.50431 77.2643 7.53383C77.2643 8.56336 76.4529 9.37479 75.4426 9.37479C74.4323 9.37479 73.6209 8.56336 73.6209 7.53383C73.6209 6.50431 74.4323 5.69287 75.4426 5.69287Z" fill="#420A87"/>
<path d="M10.9718 10.988V32.9865H21.9243V0H0V10.988H10.9718Z" fill="#420A87"/>
<path d="M21.9243 0C21.9243 6.11301 26.857 10.9912 32.8961 10.9912V0H21.9243Z" fill="#3BBAB2"/>
</svg>
